# xmcd
#
# Track frame offsets:
#	151
#	17018
#	33851
#	49270
#	70793
#	86910
#	102421
#	115907
#	137533
#	154917
#
# Disc length: 2527 seconds
#
# Revision: 0
# Processed by: cddbd v1.5.1PL2 Copyright (c) Steve Scherf et al.
# Submitted via: audiograbber 1.83.01
#
DISCID=8009dd0a
DTITLE=Embellish - Wake Me Up!
DYEAR=1900
DGENRE=
TTITLE0=Water Lung
TTITLE1=Super Cool Girl
TTITLE2=You
TTITLE3=Drug Dealer
TTITLE4=Sunshine
TTITLE5=Wake Me Up!!!!
TTITLE6=I Don't Know
TTITLE7=Ambivalence
TTITLE8=One
TTITLE9=Sea Monster
EXTD=
EXTT0=
EXTT1=
EXTT2=
EXTT3=
EXTT4=
EXTT5=
EXTT6=
EXTT7=
EXTT8=
EXTT9=
PLAYORDER=
